<?xml version='1.0' encoding='UTF-8' standalone='no'?>
<!-- Created with Fritzing (http://www.fritzing.org/) -->
<svg xmlns:svg='http://www.w3.org/2000/svg' xmlns='http://www.w3.org/2000/svg' version='1.2' baseProfile='tiny' x='0in' y='0in' width='2.70389in' height='1.63204in' viewBox='0 0 194.68 117.507' >
<g partID='88490'><g transform='translate(153.197,58.507)' ><g transform='matrix(0,1,-1,0,0,0)'  ><g id="schematic" xmlns="http://www.w3.org/2000/svg">
<line y1="3.096" y2="0.216" stroke-width="0.432002" stroke-linecap="round" xmlns="http://www.w3.org/2000/svg" x1="7.55002" stroke="#000000" x2="8.63003" class="other"/>
<line y1="0.216" y2="5.976" stroke-width="0.432002" stroke-linecap="round" xmlns="http://www.w3.org/2000/svg" x1="8.63003" stroke="#000000" x2="10.43" class="other"/>
<line y1="5.976" y2="0.216" stroke-width="0.432002" stroke-linecap="round" xmlns="http://www.w3.org/2000/svg" x1="10.43" stroke="#000000" x2="12.23" class="other"/>
<line y1="0.216" y2="5.976" stroke-width="0.432002" stroke-linecap="round" xmlns="http://www.w3.org/2000/svg" x1="12.23" stroke="#000000" x2="14.03" class="other"/>
<line y1="5.976" y2="0.216" stroke-width="0.432002" stroke-linecap="round" xmlns="http://www.w3.org/2000/svg" x1="14.03" stroke="#000000" x2="15.8301" class="other"/>
<line y1="0.216" y2="5.976" stroke-width="0.432002" stroke-linecap="round" xmlns="http://www.w3.org/2000/svg" x1="15.8301" stroke="#000000" x2="17.6301" class="other"/>
<line y1="5.976" y2="0.216" stroke-width="0.432002" stroke-linecap="round" xmlns="http://www.w3.org/2000/svg" x1="17.6301" stroke="#000000" x2="19.4301" class="other"/>
<line y1="0.216" y2="5.976" stroke-width="0.432002" stroke-linecap="round" xmlns="http://www.w3.org/2000/svg" x1="19.4301" stroke="#000000" x2="21.2301" class="other"/>
<line y1="5.976" y2="3.096" stroke-width="0.432002" stroke-linecap="round" xmlns="http://www.w3.org/2000/svg" x1="21.2301" stroke="#000000" x2="21.9501" class="other"/>
<line y1="3.096" id="connector1pin" y2="3.096" stroke-width="0.700001" stroke-linecap="round" xmlns="http://www.w3.org/2000/svg" connectorname="2" x1="29.1502" stroke="#787878" x2="21.9501" class="pin"/>
<g id="connector1terminal" stroke-width="0" xmlns="http://www.w3.org/2000/svg" width="0.000283466" stroke="none" height="0.000283465" y="3.096" x="29.1502" class="terminal" fill="none"/>
<text font-family="'Droid Sans'" stroke-width="0" xmlns="http://www.w3.org/2000/svg" stroke="none" text-anchor="middle" font-size="2.50001" y="2.046" x="25.5501" class="text" fill="#8c8c8c">2</text>
<line y1="3.096" id="connector0pin" y2="3.096" stroke-width="0.700001" stroke-linecap="round" xmlns="http://www.w3.org/2000/svg" connectorname="1" x1="0.350001" stroke="#787878" x2="7.55002" class="pin"/>
<g id="connector0terminal" stroke-width="0" xmlns="http://www.w3.org/2000/svg" width="0.000283466" stroke="none" height="0.000283465" y="3.096" x="0.350001" class="terminal" fill="none"/>
<text font-family="'Droid Sans'" stroke-width="0" xmlns="http://www.w3.org/2000/svg" stroke="none" text-anchor="middle" font-size="2.50001" y="2.046" x="3.95001" class="text" fill="#8c8c8c">1</text>
</g>
</g></g></g><g partID='88730'><g transform='translate(121.693,7.88029)' ><g transform='matrix(0,1,-1,0,0,0)'  ><g id="schematic">
<path stroke-width="0.9" d="M29.15,0.36c3.977,0,7.2,3.223,7.201,7.199s-3.224,7.2,-7.199,7.201c0,0,-0.001,0,-0.002,0l-14.4,0c-3.977,0.002,-7.2,-3.223,-7.201,-7.199c0,-3.977,3.224,-7.2,7.199,-7.201c0.001,0,0.001,0,0.002,0L29.15,0.36z" stroke="#000000" fill="#FFFFFF"/>
<line y1="0.36" y2="1.8" stroke-width="0.5" stroke-linecap="round" x1="17.63" stroke="#000000" x2="17.63" fill="none"/>
<path stroke-width="0.5" d="M17.63,1.8c0,0.795,0.646,1.44,1.44,1.44" stroke="#000000" fill="none"/>
<line y1="3.24" y2="3.24" stroke-width="0.5" stroke-linecap="round" x1="19.07" stroke="#000000" x2="25.55" fill="none"/>
<path stroke-width="0.5" d="M25.55,3.24c0.598,0,1.081,0.483,1.081,1.08c0,0.596,-0.482,1.08,-1.08,1.08c0,0,0,0,-0.001,0" stroke="#000000" fill="none"/>
<line y1="5.4" y2="5.4" stroke-width="0.5" stroke-linecap="round" x1="18.35" stroke="#000000" x2="25.55" fill="none"/>
<path stroke-width="0.5" d="M18.35,7.56c-0.598,0,-1.08,-0.483,-1.08,-1.08s0.482,-1.08,1.08,-1.08l0,0" stroke="#000000" fill="none"/>
<line y1="7.56" y2="7.56" stroke-width="0.5" stroke-linecap="round" x1="18.35" stroke="#000000" x2="25.55" fill="none"/>
<path stroke-width="0.5" d="M25.55,7.56c0.598,0,1.081,0.483,1.081,1.079c0.001,0.598,-0.481,1.082,-1.079,1.082c-0.001,0,-0.001,0,-0.002,0" stroke="#000000" fill="none"/>
<line y1="9.721" y2="9.721" stroke-width="0.5" stroke-linecap="round" x1="18.35" stroke="#000000" x2="25.55" fill="none"/>
<path stroke-width="0.5" d="M18.35,11.88c-0.598,0,-1.08,-0.483,-1.08,-1.08s0.482,-1.079,1.08,-1.079l0,0" stroke="#000000" fill="none"/>
<line y1="11.88" y2="11.88" stroke-width="0.5" stroke-linecap="round" x1="18.35" stroke="#000000" x2="24.83" fill="none"/>
<path stroke-width="0.5" d="M26.27,13.32c0,-0.795,-0.646,-1.439,-1.44,-1.439l0,0" stroke="#000000" fill="none"/>
<line y1="13.32" y2="14.76" stroke-width="0.5" stroke-linecap="round" x1="26.27" stroke="#000000" x2="26.27" fill="none"/>
<line y1="7.56" id="connector0pin" y2="7.56" stroke-width="0.75" stroke-linecap="round" x1="0.35" stroke="#787878" x2="7.55" fill="none"/>
<g points="1.137,7.889,0,7.92,0,7.269,1.153,7.264" id="connector0terminal" fill="none"/>
<g transform="matrix(1, 0, 0, 1, 3.2615, 6.5107)">
<text font-family="'DroidSans'" font-size="2.5" fill="#8C8C8C">1</text>
</g>
<line y1="7.56" id="connector1pin" y2="7.56" stroke-width="0.75" stroke-linecap="round" x1="43.551" stroke="#787878" x2="36.35" fill="none"/>
<g points="42.872,7.92,43.9,7.936,43.9,7.217,42.841,7.217" id="connector1terminal" fill="none"/>
<g transform="matrix(1, 0, 0, 1, 39.2615, 6.5107)">
<text font-family="'DroidSans'" font-size="2.5" fill="#8C8C8C">2</text>
</g>
</g>
</g></g></g><g partID='89680'><g transform='translate(117.197,58.507)' ><g transform='matrix(0,1,-1,0,0,0)'  ><g id="schematic" xmlns="http://www.w3.org/2000/svg">
<line y1="3.096" y2="0.216" stroke-width="0.432002" stroke-linecap="round" xmlns="http://www.w3.org/2000/svg" x1="7.55002" stroke="#000000" x2="8.63003" class="other"/>
<line y1="0.216" y2="5.976" stroke-width="0.432002" stroke-linecap="round" xmlns="http://www.w3.org/2000/svg" x1="8.63003" stroke="#000000" x2="10.43" class="other"/>
<line y1="5.976" y2="0.216" stroke-width="0.432002" stroke-linecap="round" xmlns="http://www.w3.org/2000/svg" x1="10.43" stroke="#000000" x2="12.23" class="other"/>
<line y1="0.216" y2="5.976" stroke-width="0.432002" stroke-linecap="round" xmlns="http://www.w3.org/2000/svg" x1="12.23" stroke="#000000" x2="14.03" class="other"/>
<line y1="5.976" y2="0.216" stroke-width="0.432002" stroke-linecap="round" xmlns="http://www.w3.org/2000/svg" x1="14.03" stroke="#000000" x2="15.8301" class="other"/>
<line y1="0.216" y2="5.976" stroke-width="0.432002" stroke-linecap="round" xmlns="http://www.w3.org/2000/svg" x1="15.8301" stroke="#000000" x2="17.6301" class="other"/>
<line y1="5.976" y2="0.216" stroke-width="0.432002" stroke-linecap="round" xmlns="http://www.w3.org/2000/svg" x1="17.6301" stroke="#000000" x2="19.4301" class="other"/>
<line y1="0.216" y2="5.976" stroke-width="0.432002" stroke-linecap="round" xmlns="http://www.w3.org/2000/svg" x1="19.4301" stroke="#000000" x2="21.2301" class="other"/>
<line y1="5.976" y2="3.096" stroke-width="0.432002" stroke-linecap="round" xmlns="http://www.w3.org/2000/svg" x1="21.2301" stroke="#000000" x2="21.9501" class="other"/>
<line y1="3.096" id="connector1pin" y2="3.096" stroke-width="0.700001" stroke-linecap="round" xmlns="http://www.w3.org/2000/svg" connectorname="2" x1="29.1502" stroke="#787878" x2="21.9501" class="pin"/>
<g id="connector1terminal" stroke-width="0" xmlns="http://www.w3.org/2000/svg" width="0.000283466" stroke="none" height="0.000283465" y="3.096" x="29.1502" class="terminal" fill="none"/>
<text font-family="'Droid Sans'" stroke-width="0" xmlns="http://www.w3.org/2000/svg" stroke="none" text-anchor="middle" font-size="2.50001" y="2.046" x="25.5501" class="text" fill="#8c8c8c">2</text>
<line y1="3.096" id="connector0pin" y2="3.096" stroke-width="0.700001" stroke-linecap="round" xmlns="http://www.w3.org/2000/svg" connectorname="1" x1="0.350001" stroke="#787878" x2="7.55002" class="pin"/>
<g id="connector0terminal" stroke-width="0" xmlns="http://www.w3.org/2000/svg" width="0.000283466" stroke="none" height="0.000283465" y="3.096" x="0.350001" class="terminal" fill="none"/>
<text font-family="'Droid Sans'" stroke-width="0" xmlns="http://www.w3.org/2000/svg" stroke="none" text-anchor="middle" font-size="2.50001" y="2.046" x="3.95001" class="text" fill="#8c8c8c">1</text>
</g>
</g></g></g><g partID='87570'><g transform='translate(140.2,94.6402)' ><g id="schematic">
<g>
<path d="M13.5,14.966L9.9,14.966c-0.193,0,-0.35,-0.156,-0.35,-0.35s0.156,-0.35,0.35,-0.35L13.5,14.266c0.193,0,0.35,0.156,0.35,0.35S13.694,14.966,13.5,14.966z"/>
</g>
<g>
<path d="M9.9,14.966L6.3,14.966c-0.193,0,-0.35,-0.156,-0.35,-0.35s0.157,-0.35,0.35,-0.35l3.6,0c0.193,0,0.35,0.156,0.35,0.35S10.093,14.966,9.9,14.966z"/>
</g>
<g>
<polygon points="9.9,14.616,6.3,7.416,9.9,7.416,13.5,7.416" fill="#FFFFFF"/>
<path d="M9.9,15.398L5.734,7.066l8.333,0L9.9,15.398zM6.866,7.766L9.9,13.834l3.034,-6.068L6.866,7.766z"/>
</g>
<g>
<path d="M9.9,14.841c-0.124,0,-0.225,-0.101,-0.225,-0.225l0,-7.2c0,-0.124,0.101,-0.225,0.225,-0.225s0.225,0.101,0.225,0.225l0,7.2C10.124,14.74,10.024,14.841,9.9,14.841z"/>
</g>
<g>
<path d="M1.8,12.141c-0.058,0,-0.115,-0.021,-0.159,-0.065c-0.088,-0.088,-0.088,-0.23,0,-0.318l2.34,-2.341c0.088,-0.088,0.23,-0.088,0.318,0s0.088,0.23,0,0.318l-2.34,2.341C1.915,12.12,1.858,12.141,1.8,12.141z"/>
</g>
<g>
<path d="M2.16,15.381c-0.058,0,-0.115,-0.021,-0.159,-0.065c-0.088,-0.088,-0.088,-0.23,0,-0.318l2.34,-2.34c0.088,-0.088,0.23,-0.088,0.318,0s0.088,0.23,0,0.318l-2.34,2.34C2.276,15.359,2.218,15.381,2.16,15.381z"/>
</g>
<g id="connector0pin">
<path d="M9.9,22.166c-0.193,0,-0.35,-0.156,-0.35,-0.35l0,-7.2c0,-0.193,0.156,-0.35,0.35,-0.35s0.35,0.156,0.35,0.35l0,7.2C10.249,22.01,10.093,22.166,9.9,22.166z" fill="#787878"/>
</g>
<g id="connector0terminal">
<rect width="0.001" height="0.001" y="21.816" x="9.9" fill="none"/>
</g>
<g transform="matrix(1, 0, 0, 1, 3.429, 6.4262)">
<g>
<g transform="rotate(270)">
<g>
<g enable-background="new    ">
<path d="M-11.647,5.54l-0.891,0L-12.538,5.388l0.342,-0.372c0.049,-0.053,0.093,-0.101,0.131,-0.145s0.071,-0.086,0.099,-0.128c0.026,-0.042,0.047,-0.084,0.062,-0.125c0.015,-0.043,0.021,-0.088,0.021,-0.138c0,-0.038,-0.005,-0.072,-0.017,-0.102s-0.027,-0.054,-0.047,-0.075c-0.021,-0.02,-0.045,-0.035,-0.073,-0.046s-0.06,-0.016,-0.094,-0.016c-0.062,0,-0.118,0.013,-0.167,0.038c-0.051,0.024,-0.098,0.057,-0.143,0.096l-0.1,-0.116c0.025,-0.023,0.055,-0.046,0.084,-0.065c0.029,-0.021,0.063,-0.039,0.097,-0.054s0.071,-0.026,0.109,-0.036c0.038,-0.008,0.079,-0.013,0.121,-0.013c0.063,0,0.119,0.009,0.169,0.026c0.051,0.018,0.094,0.043,0.129,0.076c0.035,0.032,0.063,0.072,0.082,0.119c0.019,0.048,0.028,0.101,0.028,0.16c0,0.056,-0.009,0.108,-0.026,0.158c-0.017,0.05,-0.041,0.1,-0.07,0.148c-0.031,0.048,-0.066,0.097,-0.109,0.146c-0.041,0.049,-0.087,0.1,-0.136,0.152L-12.32,5.37l0,0.008l0.673,0L-11.647,5.54z" fill="#787878"/>
</g>
</g>
</g>
</g>
</g>
<g id="connector1pin">
<path d="M9.9,7.766c-0.193,0,-0.35,-0.157,-0.35,-0.35l0,-7.2c0,-0.193,0.156,-0.35,0.35,-0.35s0.35,0.157,0.35,0.35l0,7.2C10.249,7.609,10.093,7.766,9.9,7.766z" fill="#787878"/>
</g>
<g id="connector1terminal">
<polygon points="9.9,0.216,9.901,0.216,9.901,0.216" fill="none"/>
</g>
<g transform="matrix(1, 0, 0, 1, 3.429, 1.3462)">
<g>
<g transform="rotate(270)">
<g>
<g enable-background="new    ">
<path d="M-2.616,5.54l-0.172,0L-2.788,4.648c0,-0.028,0,-0.058,0,-0.09s0.001,-0.063,0.002,-0.095c0.001,-0.032,0.002,-0.063,0.003,-0.092c0.001,-0.028,0.002,-0.054,0.002,-0.076c-0.011,0.012,-0.021,0.021,-0.029,0.03s-0.017,0.017,-0.026,0.024s-0.018,0.016,-0.028,0.025c-0.01,0.008,-0.021,0.019,-0.035,0.03l-0.145,0.118l-0.094,-0.12l0.374,-0.292l0.146,0L-2.618,5.54z" fill="#787878"/>
</g>
</g>
</g>
</g>
</g>
<g>
<path d="M0.18,13.536l1.08,-2.521l1.44,1.438L0.18,13.536z"/>
</g>
<g>
<path d="M0.54,16.776l1.08,-2.521l1.438,1.438L0.54,16.776z"/>
</g>
</g>
</g></g><g partID='92370'><line stroke-linecap='round' stroke='#404040' x1='29.1592' y1='1.05' x2='29.1592' y2='61.7432' stroke-width='0.699998' /></g><g partID='92310'><line stroke-linecap='round' stroke='#404040' x1='150.101' y1='1.05' x2='29.1592' y2='1.05' stroke-width='0.699998' /></g><g partID='92320'><line stroke-linecap='round' stroke='#404040' x1='150.101' y1='58.8572' x2='150.101' y2='1.05' stroke-width='0.699998' /></g><g partID='91490'><line stroke-linecap='round' stroke='#404040' x1='99.6894' y1='87.657' x2='49.3004' y2='87.657' stroke-width='0.699998' /></g><g partID='91420'><line stroke-linecap='round' stroke='#404040' x1='99.6894' y1='8.42101' x2='99.6894' y2='87.6569' stroke-width='0.699998' /></g><g partID='91360'><line stroke-linecap='round' stroke='#404040' x1='114.101' y1='8.45701' x2='99.6895' y2='8.42105' stroke-width='0.699998' /></g><g partID='91560'><line stroke-linecap='round' stroke='#404040' x1='17.6398' y1='51.2506' x2='17.6398' y2='61.743' stroke-width='0.699998' /></g><g partID='91570'><line stroke-linecap='round' stroke='#404040' x1='114.116' y1='51.2506' x2='17.6393' y2='51.2506' stroke-width='0.699998' /></g><circle  fill="black" cx="114.116" cy="51.2506" r="1.44" stroke-width="0" stroke="none" /><g partID='91720'><line stroke-linecap='round' stroke='#404040' x1='114.101' y1='58.857' x2='114.116' y2='51.251' stroke-width='0.699998' /></g><circle  fill="black" cx="114.116" cy="51.251" r="1.44" stroke-width="0" stroke="none" /><g partID='91980'><line stroke-linecap='round' stroke='#404040' x1='70.8862' y1='81.9034' x2='49.3193' y2='81.9034' stroke-width='0.699998' /></g><g partID='91860'><line stroke-linecap='round' stroke='#404040' x1='70.8862' y1='102.057' x2='70.8862' y2='81.9033' stroke-width='0.699998' /></g><g partID='92500'><line stroke-linecap='round' stroke='#404040' x1='114.091' y1='102.033' x2='70.8858' y2='102.057' stroke-width='0.699998' /></g><g partID='91870'><line stroke-linecap='round' stroke='#404040' x1='114.101' y1='87.657' x2='114.091' y2='102.033' stroke-width='0.699998' /></g><circle  fill="black" cx="114.101" cy="87.657" r="1.44" stroke-width="0" stroke="none" /><g partID='92090'><line stroke-linecap='round' stroke='#404040' x1='150.096' y1='94.8322' x2='150.101' y2='87.6573' stroke-width='0.699998' /></g><g partID='92100'><line stroke-linecap='round' stroke='#404040' x1='150.101' y1='94.8562' x2='150.096' y2='94.8318' stroke-width='0.699998' /></g><g partID='92610'><line stroke-linecap='round' stroke='#404040' x1='128.493' y1='87.6314' x2='114.101' y2='87.6574' stroke-width='0.699998' /></g><circle  fill="black" cx="114.101" cy="87.6574" r="1.44" stroke-width="0" stroke="none" /><g partID='92690'><line stroke-linecap='round' stroke='#404040' x1='128.493' y1='116.457' x2='128.493' y2='87.6312' stroke-width='0.699998' /></g><g partID='92620'><line stroke-linecap='round' stroke='#404040' x1='150.101' y1='116.457' x2='128.493' y2='116.457' stroke-width='0.699998' /></g><g partID='69910' id='partLabel'><g transform='translate(3.88456,42.249)' ><g font-size='5' font-style='normal' font-weight='normal' fill='#000000' font-family="'DroidSans'" id='schematicLabel' fill-opacity='1' stroke='none' ><text x='0' y='3.75'>Digispark1</text></g></g></g><g partID='87570' id='partLabel'><g transform='translate(153.88,83.4402)' ><g font-size='5' font-style='normal' font-weight='normal' fill='#000000' font-family="'DroidSans'" id='schematicLabel' fill-opacity='1' stroke='none' ><text x='0' y='3.75'>LED1</text><text x='0' y='8.75'>Red (633nm)</text></g></g></g><g partID='88490' id='partLabel'><g transform='translate(164.851,54.161)' ><g font-size='5' font-style='normal' font-weight='normal' fill='#000000' font-family="'DroidSans'" id='schematicLabel' fill-opacity='1' stroke='none' ><text x='0' y='3.75'>R1</text><text x='0' y='8.75'>&#xb1;5%</text><text x='0' y='13.75'>330&#x3a9;</text></g></g></g><g partID='88730' id='partLabel'><g transform='translate(136.082,16.6698)' ><g font-size='5' font-style='normal' font-weight='normal' fill='#000000' font-family="'DroidSans'" id='schematicLabel' fill-opacity='1' stroke='none' ><text x='0' y='3.75'>R2</text></g></g></g><g partID='89680' id='partLabel'><g transform='translate(128.851,54.161)' ><g font-size='5' font-style='normal' font-weight='normal' fill='#000000' font-family="'DroidSans'" id='schematicLabel' fill-opacity='1' stroke='none' ><text x='0' y='3.75'>R3</text><text x='0' y='8.75'>&#xb1;5%</text><text x='0' y='13.75'>10k&#x3a9;</text></g></g></g></svg>